<svg xmlns="http://www.w3.org/2000/svg" viewBox="0 0 837 942" width="837" height="942">
	<style>
		tspan { white-space:pre }
		.shp0 { fill: #c6ddeb } 
		.shp1 { fill: #7db8c6 } 
		.shp2 { fill: #fcc345 } 
		.shp3 { fill: none;stroke: #3c4451;stroke-linecap:round;stroke-width: 12.008 } 
		.shp4 { fill: none;stroke: #3c4451;stroke-width: 4.125 } 
		.shp5 { fill: #ef4f4b;stroke: #3c4451;stroke-width: 4.125 } 
		.shp6 { fill: none;stroke: #3c4451;stroke-linecap:round;stroke-width: 7.004 } 
		.shp7 { fill: none;stroke: #3c4451;stroke-width: 6.188 } 
		.shp8 { fill: none;stroke: #3c4451;stroke-width: 7.219 } 
		.shp9 { fill: none;stroke: #3c4451;stroke-width: 3.879 } 
		.shp10 { fill: none;stroke: #3c4451;stroke-width: 5.096 } 
		.shp11 { fill: #c6ddeb;stroke: #3c4451;stroke-width: 4.077 } 
		.shp12 { fill: #fcc345;stroke: #3c4451;stroke-width: 4.077 } 
		.shp13 { fill: none;stroke: #3c4451;stroke-linecap:round;stroke-width: 6.188 } 
		.shp14 { fill: none;stroke: #3c4451;stroke-width: 7.004 } 
		.shp15 { fill: none;stroke: #3c4451;stroke-width: 3.094 } 
		.shp16 { fill: none;stroke: #3c4451;stroke-width: 9.006 } 
	</style>
	<g id="Page 1">
		<path id="Path 1" class="shp0" d="M179.04,803.74c3.16,9.5 290.73,45.91 278.73,-188.83c-11.99,-234.74 313.47,-223.01 313.47,-223.01c0,-204.57 -160.9,-321.49 -331.82,-321.49c-170.92,0 -309.48,127.12 -309.48,283.94c0,43.82 2.26,74.73 21.58,111.79l44.96,4.69" />
		<path id="Path 2" class="shp1" d="M398.24,423.71c46.78,-74.31 123.53,-20.33 211.24,-85.78c87.71,-65.46 -24.12,-250.86 -233.53,-216.56c-209.41,34.3 -156.78,241.36 -156.78,241.36c25.22,87.65 147.88,112.45 179.07,60.98zM600.3,618.85c35.97,0 65.13,-29.16 65.13,-65.13c0,-35.97 -29.16,-65.13 -65.13,-65.13c-35.97,0 -65.12,29.16 -65.12,65.13c0,35.97 29.16,65.13 65.13,65.13z" />
		<path id="Path 3" class="shp2" d="M168.41,449.6c0,0 -9.55,13.31 0,46.02l75.25,-39.39z" />
		<path id="Path 4" class="shp3" d="M129.95,808.34c3.42,10.3 314.48,49.81 301.5,-204.84c-12.97,-254.64 339.08,-241.91 339.08,-241.91c0,-221.92 -174.05,-348.75 -358.93,-348.75c-184.89,0 -334.77,137.9 -334.77,308.01c0,47.54 2.44,81.06 23.34,121.26l48.64,5.08" />
		<path id="Path 5" class="shp4" d="M416.68,210.82c0,-13.39 -9.59,-25.14 -23.23,-25.14h-67.6c-13.65,0 -25.41,11.75 -25.41,25.14v64.89c0,13.4 11.76,24.47 25.41,24.47h67.6c13.64,0 23.23,-11.07 23.23,-24.47z" />
		<path id="Path 6" class="shp5" d="M398.66,271.73v-54.69c0,-5.12 -4.15,-9.27 -9.27,-9.27h-62.83c-5.12,0 -9.27,4.15 -9.27,9.27v54.69c0,5.12 4.15,9.27 9.27,9.27h62.83c5.12,0 9.27,-4.15 9.27,-9.27z" />
		<path id="Path 7" class="shp6" d="M159.6,488.2l77.82,-39.08l-82.77,-5.79c-4.94,24.6 4.94,44.87 4.94,44.87z" />
		<path id="Path 8" class="shp3" d="M100.18,468.79c0,0 -25.81,38.81 -80.17,116.41c-27.18,38.81 25.94,46.08 56.83,47.3c24.7,2.43 8.65,10.91 0,21.83c-8.65,10.91 23.34,27.89 23.34,27.89l1.36,14.55c0,0 -7.41,15.76 12.35,21.83c19.76,6.06 16.28,58.72 16.06,89.74" />
		<path id="Path 9" class="shp4" d="M336.77 299.89L336.77 332.57L298.47 366.56M379.77 299.89L379.77 335.93" />
		<path id="Path 10" class="shp7" d="M333.88 149.94L333.88 186.56M358.85 149.94L358.85 186.56M382.68 149.94L382.68 186.56" />
		<path id="Path 11" class="shp8" d="M648.53,631.15c30.95,-18.27 51.65,-51.56 51.65,-89.59c0,-57.7 -47.65,-104.48 -106.43,-104.48c-58.78,0 -106.43,46.78 -106.43,104.48c0,57.7 47.65,104.48 106.43,104.48c6.75,0 13.36,-0.62 19.77,-1.8" />
		<path id="Path 12" class="shp9" d="M636.39,602.79c19.88,-13.36 32.92,-35.81 32.92,-61.25c0,-40.97 -33.83,-74.18 -75.56,-74.18c-41.74,0 -75.57,33.21 -75.57,74.18c0,40.96 43.51,79.5 83.97,72.96" />
		<path id="Path 13" class="shp4" d="M418.71 243.53L512.89 243.53L577.57 307.17M419.82 267.34L474.44 267.34L511.08 303.24" />
		<path id="Path 14" class="shp7" d="M377.42,388.76c52.71,-70.94 139.18,-19.4 238,-81.88c98.82,-62.48 -27.18,-239.47 -263.12,-206.73c-235.94,32.74 -176.64,230.4 -176.64,230.4c28.41,83.67 166.62,107.34 201.76,58.21z" />
		<path id="Path 15" class="shp4" d="M418.71 220.29L507.95 220.29L537.42 191.21M620.03 549.93C617.49 541.39 608.34 536.57 599.59 539.17L599.58 539.18C590.83 541.78 585.79 550.81 588.33 559.35L687.04 892.01C689.58 900.56 698.74 905.5 707.49 903.18L707.5 903.18C716.25 899.69 721.28 891.14 718.75 882.6L620.03 549.93Z" />
		<path id="Path 16" class="shp10" d="M677.79,860.48c-15.86,13.34 -20.23,36.56 -9.33,54.99c12.14,20.53 38.62,27.34 59.15,15.2c20.53,-12.14 27.34,-38.62 15.2,-59.15c-7.38,-12.49 -20.06,-19.9 -33.49,-21.06" />
		<path id="Path 17" class="shp4" d="M672.87,724.96l-34.84,9.06" />
		<path id="Path 18" class="shp11" d="M464.64,802.53c0,7.81 4.16,15.21 10.1,15.21h114.35c5.94,0 11.55,-7.4 11.55,-15.21v-0.15c0,-7.82 -5.6,-13.26 -11.55,-13.26h-114.35c-5.95,0 -10.1,5.44 -10.1,13.26z" />
		<path id="Path 19" class="shp12" d="M431.27,859.15c0,7.54 4.93,13.95 11.02,13.95h147.27c6.09,0 11.02,-6.41 11.02,-13.95c0,-7.54 -4.93,-13.95 -11.02,-13.95h-147.27c-6.09,0 -11.02,6.41 -11.02,13.95z" />
		<path id="Path 20" class="shp8" d="M383.12,937.78c0,0 13.03,-52.97 -68.29,-135.18" />
		<path id="Path 21" class="shp13" d="M158.66,685.84c0,0 -43.98,-7.23 -57.82,0" />
		<path id="Path 22" class="shp4" d="M593.66 437.05L593.66 462.63M540.73 598.26L522.86 616.13M659.31 587.19L677.82 605.62M128.96 735.42C128.96 735.42 186.79 735.07 188.26 780.6L188.26 815.63" />
		<path id="Path 23" class="shp14" d="M251.77,755.65v-199.84l-41.52,-41.52v-48.53" />
		<path id="Path 24" class="shp15" d="M297.8,239.16h-39.72v25.28l15.35,15.35v59.59" />
		<path id="Path 25" class="shp16" d="M748.55,596.6c0,0 -8.59,126.76 81.64,219.14" />
	</g>
</svg>