<svg xmlns="http://www.w3.org/2000/svg" viewBox="0 0 972 927" width="972" height="927">
	<style>
		tspan { white-space:pre }
		.shp0 { fill: #c6ddeb } 
		.shp1 { fill: #fcc345 } 
		.shp2 { fill: #7db8c6 } 
		.shp3 { fill: none;stroke: #3c4451;stroke-width: 9.13 } 
		.shp4 { fill: #ef4f4b;stroke: #3c4451;stroke-width: 6.177 } 
		.shp5 { fill: none;stroke: #3c4451;stroke-width: 8.233 } 
		.shp6 { fill: none;stroke: #3c4451;stroke-width: 9.411 } 
		.shp7 { fill: none;stroke: #3c4451;stroke-linecap:round;stroke-linejoin:round;stroke-width: 9.411 } 
		.shp8 { fill: none;stroke: #3c4451;stroke-linecap:round;stroke-linejoin:round;stroke-width: 10.947 } 
		.shp9 { fill: none;stroke: #3c4451;stroke-linecap:round;stroke-linejoin:round;stroke-width: 6.347 } 
		.shp10 { fill: #3c4451 } 
	</style>
	<g id="Page 1">
		<path id="Path 1" class="shp0" d="M163.89,99.37c-0.09,-35.92 -29.29,-64.97 -65.21,-64.88c-35.92,0.09 -64.97,29.28 -64.88,65.21c0.09,35.92 29.28,64.97 65.21,64.88c35.92,-0.09 64.97,-29.28 64.88,-65.21zM472.65,226.48c0,-35.92 -29.12,-65.04 -65.05,-65.04c-35.92,0 -65.04,29.12 -65.04,65.04c0,35.92 29.12,65.05 65.04,65.05c35.92,0 65.05,-29.12 65.05,-65.05z" />
		<path id="Path 2" class="shp1" d="M470.2,486.54c-0.09,-35.92 -29.28,-64.97 -65.21,-64.88c-35.92,0.09 -64.97,29.28 -64.88,65.21c0.09,35.92 29.29,64.97 65.21,64.88c35.92,-0.09 64.97,-29.29 64.88,-65.21z" />
		<path id="Path 3" class="shp2" d="M163.89,344.41c-0.09,-35.92 -29.29,-64.97 -65.21,-64.88c-35.92,0.09 -64.97,29.28 -64.88,65.21c0.09,35.92 29.28,64.97 65.21,64.88c35.92,-0.09 64.97,-29.29 64.88,-65.21z" />
		<path id="Path 4" class="shp0" d="M163.89,604.16c-0.09,-35.92 -29.29,-64.97 -65.21,-64.88c-35.92,0.09 -64.97,29.28 -64.88,65.21c0.09,35.93 29.28,64.97 65.21,64.88c35.92,-0.09 64.97,-29.29 64.88,-65.21z" />
		<path id="Path 5" class="shp2" d="M163.89,851.65c-0.09,-35.92 -29.29,-64.97 -65.21,-64.88c-35.92,0.09 -64.97,29.28 -64.88,65.21c0.09,35.93 29.28,64.97 65.21,64.88c35.92,-0.09 64.97,-29.29 64.88,-65.21zM756.9,633.57c-0.09,-35.92 -29.28,-64.97 -65.21,-64.88c-35.92,0.09 -64.97,29.28 -64.88,65.21c0.09,35.93 29.28,64.97 65.21,64.88c35.92,-0.09 64.97,-29.29 64.88,-65.21zM756.9,366.47c-0.09,-35.93 -29.28,-64.97 -65.21,-64.88c-35.92,0.09 -64.97,29.28 -64.88,65.21c0.09,35.92 29.28,64.97 65.21,64.88c35.92,-0.09 64.97,-29.29 64.88,-65.21z" />
		<path id="Path 6" class="shp0" d="M478.43,745.25c0,-35.92 -29.12,-65.05 -65.05,-65.05c-35.92,0 -65.05,29.12 -65.05,65.05c0,35.92 29.12,65.04 65.05,65.04c35.92,0 65.05,-29.12 65.05,-65.04z" />
		<path id="Path 7" class="shp3" d="M962.31,473.01c0,-47.28 -38.33,-85.61 -85.6,-85.61c-47.28,0 -85.6,38.33 -85.6,85.61c0,47.28 38.33,85.6 85.6,85.6c47.28,0 85.6,-38.33 85.6,-85.6z" />
		<path id="Path 8" class="shp4" d="M921.78,473.01c0,-24.63 -19.97,-44.6 -44.6,-44.6c-24.63,0 -44.6,19.97 -44.6,44.6c0,24.63 19.97,44.6 44.6,44.6c24.63,0 44.6,-19.97 44.6,-44.6z" />
		<path id="Path 9" class="shp5" d="M390.16 285.9C347.92 285.9 313.69 251.66 313.69 209.43C313.69 167.2 347.92 132.96 390.16 132.96C432.39 132.96 466.62 167.2 466.62 209.43C466.62 251.66 432.39 285.9 390.16 285.9ZM390.35 548.61C348.12 548.72 313.79 514.57 313.69 472.34C313.58 430.1 347.73 395.78 389.96 395.68C432.2 395.57 466.52 429.72 466.62 471.95C466.73 514.19 432.58 548.51 390.35 548.61ZM394.08 809.37C351.85 809.37 317.61 775.13 317.61 732.9C317.61 690.66 351.85 656.43 394.08 656.43C436.31 656.43 470.55 690.66 470.55 732.9C470.55 775.13 436.31 809.37 394.08 809.37Z" />
		<path id="Path 10" class="shp6" d="M682.76 421.52C640.53 421.52 606.29 387.28 606.29 345.05C606.29 302.82 640.53 268.58 682.76 268.58C724.99 268.58 759.23 302.82 759.23 345.05C759.23 387.28 724.99 421.52 682.76 421.52ZM682.76 699.18C640.53 699.18 606.29 664.95 606.29 622.71C606.29 580.48 640.53 546.24 682.76 546.24C724.99 546.24 759.23 580.48 759.23 622.71C759.23 664.95 724.99 699.18 682.76 699.18ZM86.27 399.61C44.04 399.61 9.8 365.37 9.8 323.14C9.8 280.91 44.04 246.67 86.27 246.67C128.5 246.67 162.74 280.91 162.74 323.14C162.74 365.37 128.5 399.61 86.27 399.61ZM86.27 162.39C44.04 162.39 9.8 128.15 9.8 85.92C9.8 43.68 44.04 9.45 86.27 9.45C128.5 9.45 162.74 43.68 162.74 85.92C162.74 128.15 128.5 162.39 86.27 162.39ZM86.27 658.41C44.04 658.41 9.8 624.17 9.8 581.94C9.8 539.7 44.04 505.47 86.27 505.47C128.5 505.47 162.74 539.7 162.74 581.94C162.74 624.17 128.5 658.41 86.27 658.41ZM86.27 917.2C44.04 917.2 9.8 882.96 9.8 840.73C9.8 798.49 44.04 764.26 86.27 764.26C128.5 764.26 162.74 798.49 162.74 840.73C162.74 882.96 128.5 917.2 86.27 917.2Z" />
		<path id="Path 11" class="shp7" d="M162.74,834.08l149.65,-96.72l-149,-154.88l148.69,-111.7l-144.13,-147.92l144.44,-118.76l-149,-117.63" />
		<path id="Path 12" class="shp8" d="M473.08 709.91L605.85 615.81L467.77 472.69L603.07 347.21L467.77 237.42M747.43 581.93L812.15 537.54M801.4 420.48L755.86 385.7" />
		<path id="Path 13" class="shp9" d="M163.07 99.23L312.92 471.65L162.74 819.83M791.1 478.99L467.18 478.99" />
		<path id="Path 14" class="shp10" d="M105.22,351.43h-11.24v-49.31h11.24c4.34,0 7.89,-3.55 7.89,-7.89c0,-4.34 -3.55,-7.89 -7.89,-7.89h-37.47c-4.34,0 -7.89,3.55 -7.89,7.89c0,4.34 3.55,7.89 7.89,7.89h11.93v49.31h-11.93c-4.34,0 -7.89,3.55 -7.89,7.89c0,4.34 3.55,7.89 7.89,7.89h37.47c4.34,0 7.89,-3.55 7.89,-7.89c0,-4.34 -3.55,-7.89 -7.89,-7.89zM105.22,113.8h-11.24v-49.31h11.24c4.34,0 7.89,-3.55 7.89,-7.89c0,-4.34 -3.55,-7.89 -7.89,-7.89h-37.47c-4.34,0 -7.89,3.55 -7.89,7.89c0,4.34 3.55,7.89 7.89,7.89h11.93v49.31h-11.93c-4.34,0 -7.89,3.55 -7.89,7.89c0,4.34 3.55,7.89 7.89,7.89h37.47c4.34,0 7.89,-3.55 7.89,-7.89c0,-4.34 -3.55,-7.89 -7.89,-7.89zM105.22,603.83h-11.24v-49.31h11.24c4.34,0 7.89,-3.55 7.89,-7.89c0,-4.34 -3.55,-7.89 -7.89,-7.89h-37.47c-4.34,0 -7.89,3.55 -7.89,7.89c0,4.34 3.55,7.89 7.89,7.89h11.93v49.31h-11.93c-4.34,0 -7.89,3.55 -7.89,7.89c0,4.34 3.55,7.89 7.89,7.89h37.47c4.34,0 7.89,-3.55 7.89,-7.89c0,-4.34 -3.55,-7.89 -7.89,-7.89zM105.22,866.02h-11.24v-49.31h11.24c4.34,0 7.89,-3.55 7.89,-7.89c0,-4.34 -3.55,-7.89 -7.89,-7.89h-37.47c-4.34,0 -7.89,3.55 -7.89,7.89c0,4.34 3.55,7.89 7.89,7.89h11.93v49.31h-11.93c-4.34,0 -7.89,3.55 -7.89,7.89c0,4.34 3.55,7.89 7.89,7.89h37.47c4.34,0 7.89,-3.55 7.89,-7.89c0,-4.34 -3.55,-7.89 -7.89,-7.89zM369.35,433.35c-1.51,-1.62 -3.49,-2.43 -5.93,-2.43c-2.48,0 -4.43,0.82 -5.87,2.46c-1.44,1.64 -2.16,4.1 -2.16,7.37v63.09c0,3.28 0.73,5.75 2.19,7.4c1.46,1.66 3.41,2.49 5.84,2.49c2.4,0 4.37,-0.82 5.9,-2.46c1.53,-1.64 2.3,-4.11 2.3,-7.43v-26.93h35.01v26.93c0,3.28 0.73,5.75 2.18,7.4c1.46,1.66 3.4,2.49 5.85,2.49c2.4,0 4.37,-0.82 5.9,-2.46c1.53,-1.64 2.29,-4.11 2.29,-7.43v-63.09c0,-3.31 -0.76,-5.78 -2.27,-7.4c-1.51,-1.62 -3.49,-2.43 -5.93,-2.43c-2.4,0 -4.34,0.82 -5.82,2.46c-1.47,1.64 -2.21,4.1 -2.21,7.37v22.94h-35.01v-22.94c0,-3.31 -0.76,-5.78 -2.27,-7.4zM374.25,693.1c-1.51,-1.62 -3.49,-2.43 -5.93,-2.43c-2.47,0 -4.43,0.82 -5.87,2.46c-1.44,1.64 -2.16,4.1 -2.16,7.38v63.09c0,3.28 0.73,5.75 2.19,7.4c1.46,1.66 3.41,2.49 5.84,2.49c2.4,0 4.37,-0.82 5.9,-2.46c1.53,-1.64 2.3,-4.12 2.3,-7.43v-26.93h35.01v26.93c0,3.28 0.73,5.75 2.18,7.4c1.46,1.66 3.4,2.49 5.85,2.49c2.4,0 4.37,-0.82 5.9,-2.46c1.53,-1.64 2.29,-4.12 2.29,-7.43v-63.09c0,-3.31 -0.76,-5.78 -2.27,-7.4c-1.51,-1.62 -3.49,-2.43 -5.93,-2.43c-2.4,0 -4.34,0.82 -5.82,2.46c-1.47,1.64 -2.21,4.1 -2.21,7.38v22.94h-35.01v-22.94c0,-3.31 -0.76,-5.78 -2.27,-7.4zM369.35,171.16c-1.51,-1.62 -3.49,-2.43 -5.93,-2.43c-2.48,0 -4.43,0.82 -5.87,2.46c-1.44,1.64 -2.16,4.1 -2.16,7.38v63.09c0,3.27 0.73,5.74 2.19,7.4c1.46,1.66 3.41,2.49 5.84,2.49c2.4,0 4.37,-0.82 5.9,-2.46c1.53,-1.64 2.3,-4.12 2.3,-7.43v-26.93h35.01v26.93c0,3.27 0.73,5.74 2.18,7.4c1.46,1.66 3.4,2.49 5.85,2.49c2.4,0 4.37,-0.82 5.9,-2.46c1.53,-1.64 2.29,-4.12 2.29,-7.43v-63.09c0,-3.31 -0.76,-5.78 -2.27,-7.4c-1.51,-1.62 -3.49,-2.43 -5.93,-2.43c-2.4,0 -4.34,0.82 -5.82,2.46c-1.47,1.64 -2.21,4.1 -2.21,7.38v22.94h-35.01v-22.94c0,-3.31 -0.76,-5.78 -2.27,-7.4zM663.4,305.93c-1.51,-1.62 -3.49,-2.43 -5.93,-2.43c-2.48,0 -4.43,0.82 -5.87,2.46c-1.44,1.64 -2.16,4.1 -2.16,7.37v63.09c0,3.28 0.73,5.74 2.19,7.4c1.45,1.66 3.41,2.49 5.84,2.49c2.4,0 4.37,-0.82 5.9,-2.46c1.53,-1.64 2.3,-4.12 2.3,-7.43v-26.93h35.01v26.93c0,3.28 0.73,5.74 2.18,7.4c1.46,1.66 3.4,2.49 5.84,2.49c2.4,0 4.37,-0.82 5.9,-2.46c1.53,-1.64 2.3,-4.12 2.3,-7.43v-63.09c0,-3.31 -0.76,-5.78 -2.27,-7.4c-1.51,-1.62 -3.49,-2.43 -5.93,-2.43c-2.4,0 -4.34,0.82 -5.82,2.46c-1.48,1.64 -2.21,4.1 -2.21,7.37v22.94h-35.01v-22.94c0,-3.31 -0.76,-5.78 -2.27,-7.4zM663.4,580.38c-1.51,-1.62 -3.49,-2.43 -5.93,-2.43c-2.48,0 -4.43,0.82 -5.87,2.46c-1.44,1.64 -2.16,4.1 -2.16,7.38v63.09c0,3.28 0.73,5.74 2.19,7.4c1.45,1.66 3.41,2.49 5.84,2.49c2.4,0 4.37,-0.82 5.9,-2.46c1.53,-1.64 2.3,-4.12 2.3,-7.43v-26.93h35.01v26.93c0,3.28 0.73,5.74 2.18,7.4c1.46,1.66 3.4,2.49 5.84,2.49c2.4,0 4.37,-0.82 5.9,-2.46c1.53,-1.64 2.3,-4.12 2.3,-7.43v-63.09c0,-3.31 -0.76,-5.78 -2.27,-7.4c-1.51,-1.62 -3.49,-2.43 -5.93,-2.43c-2.4,0 -4.34,0.82 -5.82,2.46c-1.48,1.64 -2.21,4.1 -2.21,7.38v22.94h-35.01v-22.94c0,-3.31 -0.76,-5.78 -2.27,-7.4z" />
	</g>
</svg>